<?xml version="1.0" standalone="no"?>
<!DOCTYPE svg PUBLIC "-//W3C//DTD SVG 20010904//EN"
 "http://www.w3.org/TR/2001/REC-SVG-20010904/DTD/svg10.dtd">
<svg version="1.0" xmlns="http://www.w3.org/2000/svg"
 width="651.000000pt" height="576.000000pt" viewBox="0 0 651.000000 576.000000"
 preserveAspectRatio="xMidYMid meet">

<g transform="translate(0.000000,576.000000) scale(0.100000,-0.100000)"
fill="#000000" stroke="none">
<path d="M2391 3544 c-21 -26 -21 -36 -21 -569 0 -502 1 -544 18 -564 16 -20
24 -22 139 -19 l123 3 -32 34 -32 34 -26 -31 c-15 -18 -30 -32 -33 -32 -12 0
-8 536 4 567 15 40 67 92 114 114 76 35 158 21 227 -40 62 -54 68 -89 68 -383
0 -142 -3 -258 -7 -258 -3 0 -19 15 -35 33 l-28 32 -29 -35 -30 -35 117 -3
c115 -3 117 -2 140 23 21 25 22 32 22 254 0 126 -4 251 -10 279 -21 113 -96
214 -195 262 -43 22 -64 25 -155 25 -93 0 -111 -3 -158 -26 l-52 -26 0 169 c0
166 0 169 -25 193 -33 34 -77 33 -104 -1z"/>
<path d="M4865 3545 l-25 -24 0 -473 c0 -276 4 -488 10 -508 13 -49 66 -109
114 -131 29 -13 65 -19 123 -19 73 0 83 2 97 22 23 32 20 65 -9 93 -20 21 -34
25 -79 25 -43 0 -60 5 -80 22 -30 28 -29 9 -27 306 l1 242 80 0 c73 0 83 3
105 25 30 29 32 64 6 96 -16 20 -29 23 -107 27 l-89 4 0 140 c0 135 -1 140
-24 159 -32 26 -67 24 -96 -6z"/>
<path d="M4413 3241 c-87 -11 -155 -58 -196 -136 -29 -56 -30 -176 -2 -224 35
-59 86 -91 201 -126 142 -43 172 -73 152 -151 -16 -62 -34 -68 -199 -74 -159
-5 -171 -9 -184 -60 -4 -18 0 -34 16 -54 l21 -27 168 3 168 3 44 30 c24 17 58
55 76 85 28 47 32 63 32 124 0 51 -6 82 -21 114 -32 65 -79 91 -247 138 -112
30 -147 111 -78 180 l34 34 109 0 c96 0 112 2 131 20 28 26 29 80 3 104 -23
21 -133 29 -228 17z"/>
<path d="M1631 3221 c-110 -41 -209 -140 -252 -251 -31 -79 -31 -233 -1 -310
45 -114 154 -217 270 -255 40 -13 76 -16 154 -13 106 4 158 21 240 80 l27 19
-6 -38 c-14 -91 -89 -185 -181 -225 -37 -17 -60 -20 -127 -16 -98 5 -145 29
-216 107 -54 59 -85 66 -124 26 -33 -32 -31 -63 3 -111 120 -165 358 -220 549
-127 72 35 167 133 206 213 l32 65 0 270 0 271 -38 76 c-43 88 -118 162 -207
206 -48 23 -69 27 -165 30 -90 2 -120 -1 -164 -17z m253 -141 c61 -23 137 -96
163 -158 25 -57 22 -166 -5 -224 -86 -176 -310 -220 -454 -90 -89 80 -116 222
-62 330 67 134 218 194 358 142z"/>
<path d="M3501 3220 c-69 -25 -122 -62 -173 -119 -205 -233 -105 -598 190
-696 84 -27 238 -18 315 20 88 43 160 114 203 200 31 63 37 86 41 162 11 185
-78 338 -242 419 -54 26 -72 29 -170 32 -90 2 -120 -1 -164 -18z m276 -153
c62 -32 127 -106 143 -163 16 -57 9 -170 -15 -218 -23 -47 -77 -101 -130 -129
-32 -17 -57 -22 -125 -22 -103 0 -145 19 -212 94 -117 130 -87 332 64 427 80
51 188 55 275 11z"/>
<path d="M2614 2916 c-9 -23 0 -51 16 -51 10 0 15 10 15 29 0 32 -21 47 -31
22z"/>
<path d="M2814 2916 c-9 -24 0 -51 19 -54 15 -3 18 2 15 29 -3 35 -24 51 -34
25z"/>
<path d="M2707 2753 c-14 -13 -7 -93 8 -99 34 -13 57 42 39 90 -6 16 -35 22
-47 9z"/>
<path d="M2708 2442 c-45 -54 -46 -52 22 -52 l62 0 -24 29 c-30 38 -43 43 -60
23z"/>
</g>
</svg>
